<svg width="19" height="19" viewBox="0 0 19 19" fill="none" xmlns="http://www.w3.org/2000/svg">
<path fill-rule="evenodd" clip-rule="evenodd" d="M1.62009 4.16645C3.63284 2.20218 6.40795 0.989586 9.46771 0.989586C12.5456 0.989586 15.3354 2.21658 17.3509 4.2014C17.6625 4.50819 17.6663 5.00943 17.3595 5.32096C17.0528 5.63249 16.5515 5.63634 16.24 5.32955C14.5121 3.62796 12.118 2.57292 9.46771 2.57292C6.83301 2.57292 4.45152 3.61559 2.72594 5.2996C2.41303 5.60497 1.91181 5.59886 1.60644 5.28595C1.30107 4.97304 1.30718 4.47182 1.62009 4.16645ZM9.49993 5.57464C6.14785 5.57464 3.43048 8.29202 3.43048 11.6441V11.6669C3.43048 12.1041 3.07604 12.4586 2.63882 12.4586C2.20159 12.4586 1.84715 12.1041 1.84715 11.6669V11.6441C1.84715 7.41758 5.27339 3.99131 9.49993 3.99131C9.93716 3.99131 10.2916 4.34575 10.2916 4.78298C10.2916 5.2202 9.93716 5.57464 9.49993 5.57464ZM11.6172 5.06777C11.7982 4.66978 12.2676 4.49392 12.6656 4.67495C15.3109 5.87828 17.1527 8.54525 17.1527 11.6441V11.6492C17.1527 12.0864 16.7982 12.4409 16.361 12.4409C15.9238 12.4409 15.5693 12.0864 15.5693 11.6492V11.6441C15.5693 9.18856 14.1111 7.07197 12.01 6.11618C11.612 5.93514 11.4361 5.46575 11.6172 5.06777ZM9.49989 8.57641C7.80564 8.57641 6.43219 9.94986 6.43219 11.6441V14.6458C6.43219 15.0831 6.07774 15.4375 5.64052 15.4375C5.20329 15.4375 4.84885 15.0831 4.84885 14.6458V11.6441C4.84885 9.0754 6.93118 6.99307 9.49989 6.99307C12.0686 6.99307 14.1509 9.0754 14.1509 11.6441V14.6458C14.1509 15.0831 13.7965 15.4375 13.3593 15.4375C12.922 15.4375 12.5676 15.0831 12.5676 14.6458V11.6441C12.5676 9.94986 11.1942 8.57641 9.49989 8.57641ZM9.49989 11.5781C9.22664 11.5781 9.0051 11.7997 9.0051 12.0729V15.5151C9.0051 16.5009 8.32201 17.6923 7.12706 17.9873C6.70258 18.0921 6.27351 17.833 6.16872 17.4085C6.06392 16.984 6.32308 16.555 6.74756 16.4502C7.10657 16.3615 7.42177 15.9144 7.42177 15.5151V12.0729C7.42177 10.9252 8.35219 9.99479 9.49989 9.99479C10.6477 9.99479 11.578 10.9252 11.578 12.0729V15.5151C11.578 15.9523 11.2236 16.3068 10.7864 16.3068C10.3491 16.3068 9.99469 15.9523 9.99469 15.5151V12.0729C9.99469 11.7996 9.77317 11.5781 9.49989 11.5781Z" fill="black" stroke="black" stroke-width="0.3" stroke-linecap="round" stroke-linejoin="round"/>
</svg>
