<svg width="12" height="13" viewBox="0 0 12 13" fill="none" xmlns="http://www.w3.org/2000/svg">
<path d="M9.41838 8.26126H5.11552C4.72395 8.25847 4.34469 8.12315 4.03873 7.87707C3.73277 7.63099 3.5179 7.28845 3.42867 6.90453L2.74295 4.09787C2.67986 3.83726 2.67663 3.5656 2.7335 3.30355C2.79036 3.04149 2.90583 2.79594 3.07111 2.58558C3.2364 2.37521 3.44716 2.20557 3.68735 2.08956C3.92754 1.97354 4.19084 1.9142 4.45724 1.91606H10.1144C10.3808 1.9142 10.6441 1.97354 10.8843 2.08956C11.1245 2.20557 11.3352 2.37521 11.5005 2.58558C11.6658 2.79594 11.7813 3.04149 11.8381 3.30355C11.895 3.5656 11.8918 3.83726 11.8287 4.09787L11.143 6.91144C11.0504 7.30013 10.8292 7.64554 10.5157 7.89085C10.2023 8.13617 9.81532 8.2668 9.41838 8.26126ZM4.43667 2.77912C4.30114 2.77953 4.16747 2.81082 4.04567 2.87063C3.92386 2.93044 3.81707 3.01723 3.7333 3.12449C3.64952 3.23176 3.59094 3.35672 3.56194 3.49001C3.53293 3.62331 3.53425 3.76148 3.56581 3.89419L4.25152 6.70776C4.29796 6.90493 4.4093 7.08047 4.56742 7.20584C4.72554 7.3312 4.92113 7.399 5.12238 7.3982H9.41838C9.61963 7.399 9.81522 7.3312 9.97334 7.20584C10.1315 7.08047 10.2428 6.90493 10.2892 6.70776L10.975 3.89419C11.0072 3.76143 11.009 3.62302 10.9803 3.48944C10.9516 3.35586 10.893 3.23061 10.8091 3.12318C10.7252 3.01574 10.6181 2.92894 10.496 2.86933C10.3738 2.80972 10.2398 2.77887 10.1041 2.77912H4.43667Z" fill="white"/>
<path d="M3.24345 4.83301C3.14554 4.83185 3.05097 4.79696 2.97549 4.73415C2.90001 4.67134 2.84817 4.5844 2.82859 4.48779L2.21488 1.80541C2.15821 1.56105 2.02085 1.3433 1.82528 1.18777C1.62972 1.03224 1.38751 0.94815 1.13831 0.949252H0.57945C0.465786 0.949252 0.356777 0.903787 0.276405 0.82286C0.196032 0.741933 0.150879 0.632171 0.150879 0.517723C0.150879 0.403274 0.196032 0.293513 0.276405 0.212586C0.356777 0.131658 0.465786 0.0861937 0.57945 0.0861937H1.13831C1.58121 0.0846358 2.01155 0.234344 2.35904 0.510865C2.70652 0.787386 2.95062 1.17438 3.05145 1.60863L3.66174 4.29101C3.67495 4.34611 3.67716 4.4033 3.66824 4.45927C3.65932 4.51523 3.63946 4.56886 3.60979 4.61703C3.58013 4.66521 3.54126 4.70697 3.49544 4.7399C3.44962 4.77282 3.39777 4.79626 3.34288 4.80885C3.31066 4.82037 3.27734 4.82847 3.24345 4.83301ZM5.18059 11.9964C4.90935 11.9964 4.6442 11.9154 4.41867 11.7637C4.19314 11.6119 4.01736 11.3963 3.91356 11.1439C3.80976 10.8916 3.7826 10.614 3.83552 10.3461C3.88843 10.0782 4.01905 9.83219 4.21085 9.63907C4.40265 9.44594 4.64701 9.31443 4.91304 9.26114C5.17907 9.20786 5.45482 9.23521 5.70542 9.33973C5.95601 9.44424 6.1702 9.62123 6.32089 9.84832C6.47159 10.0754 6.55202 10.3424 6.55202 10.6155C6.55202 10.9817 6.40753 11.333 6.15034 11.5919C5.89315 11.8509 5.54432 11.9964 5.18059 11.9964ZM5.18059 10.0839C5.07752 10.0839 4.97676 10.1146 4.89106 10.1723C4.80536 10.23 4.73856 10.3119 4.69912 10.4078C4.65968 10.5037 4.64936 10.6092 4.66946 10.711C4.68957 10.8128 4.73921 10.9063 4.81209 10.9796C4.88497 11.053 4.97783 11.103 5.07892 11.1233C5.18002 11.1435 5.2848 11.1331 5.38003 11.0934C5.47525 11.0537 5.55664 10.9864 5.61391 10.9001C5.67117 10.8138 5.70174 10.7124 5.70174 10.6086C5.70174 10.4694 5.64683 10.336 5.5491 10.2376C5.45136 10.1391 5.31881 10.0839 5.18059 10.0839ZM9.91888 11.9964C9.64764 11.9964 9.38248 11.9154 9.15695 11.7637C8.93142 11.6119 8.75564 11.3963 8.65184 11.1439C8.54804 10.8916 8.52089 10.614 8.5738 10.3461C8.62672 10.0782 8.75733 9.83219 8.94913 9.63907C9.14093 9.44594 9.3853 9.31443 9.65133 9.26114C9.91736 9.20786 10.1931 9.23521 10.4437 9.33973C10.6943 9.44424 10.9085 9.62123 11.0592 9.84832C11.2099 10.0754 11.2903 10.3424 11.2903 10.6155C11.2903 10.9817 11.1458 11.333 10.8886 11.5919C10.6314 11.8509 10.2826 11.9964 9.91888 11.9964ZM9.91888 10.0839C9.81596 10.0845 9.71554 10.1159 9.63029 10.174C9.54504 10.232 9.47878 10.3142 9.43986 10.4102C9.40094 10.5061 9.39111 10.6115 9.4116 10.7131C9.43209 10.8146 9.482 10.9078 9.55501 10.9808C9.62803 11.0539 9.72089 11.1035 9.82189 11.1235C9.92289 11.1435 10.0275 11.1329 10.1225 11.0931C10.2176 11.0532 10.2987 10.986 10.3559 10.8998C10.413 10.8136 10.4434 10.7122 10.4434 10.6086C10.4435 10.5394 10.4299 10.4709 10.4035 10.407C10.3771 10.3431 10.3384 10.2851 10.2896 10.2363C10.2408 10.1876 10.183 10.149 10.1194 10.1228C10.0557 10.0966 9.9876 10.0834 9.91888 10.0839Z" fill="white"/>
<path d="M9.91876 10.084H4.20676C3.85304 10.084 3.5138 9.94255 3.26368 9.6907C3.01356 9.43885 2.87305 9.09728 2.87305 8.74111C2.87305 8.38495 3.01356 8.04337 3.26368 7.79153C3.5138 7.53968 3.85304 7.39819 4.20676 7.39819H5.11533C5.229 7.39819 5.33801 7.44366 5.41838 7.52458C5.49875 7.60551 5.5439 7.71527 5.5439 7.82972C5.5439 7.94417 5.49875 8.05393 5.41838 8.13486C5.33801 8.21579 5.229 8.26125 5.11533 8.26125H4.20676C4.08037 8.26125 3.95915 8.31181 3.86977 8.4018C3.7804 8.49179 3.73019 8.61384 3.73019 8.74111C3.73019 8.86838 3.7804 8.99043 3.86977 9.08042C3.95915 9.17042 4.08037 9.22097 4.20676 9.22097H9.91876C10.0324 9.22097 10.1414 9.26644 10.2218 9.34736C10.3022 9.42829 10.3473 9.53805 10.3473 9.6525C10.3473 9.76695 10.3022 9.87671 10.2218 9.95764C10.1414 10.0386 10.0324 10.084 9.91876 10.084Z" fill="white"/>
</svg>
