<svg width="18" height="15" viewBox="0 0 18 15" fill="none" xmlns="http://www.w3.org/2000/svg">
<path d="M16.7647 6.17647H15.8824V5.29412C15.8824 5.0601 15.7894 4.83567 15.6239 4.6702C15.4584 4.50473 15.234 4.41176 15 4.41176C14.766 4.41176 14.5416 4.50473 14.3761 4.6702C14.2106 4.83567 14.1176 5.0601 14.1176 5.29412V6.17647H13.2353C13.0013 6.17647 12.7768 6.26943 12.6114 6.43491C12.4459 6.60038 12.3529 6.82481 12.3529 7.05882C12.3529 7.29284 12.4459 7.51727 12.6114 7.68274C12.7768 7.84821 13.0013 7.94118 13.2353 7.94118H14.1176V8.82353C14.1176 9.05754 14.2106 9.28197 14.3761 9.44745C14.5416 9.61292 14.766 9.70588 15 9.70588C15.234 9.70588 15.4584 9.61292 15.6239 9.44745C15.7894 9.28197 15.8824 9.05754 15.8824 8.82353V7.94118H16.7647C16.9987 7.94118 17.2232 7.84821 17.3886 7.68274C17.5541 7.51727 17.6471 7.29284 17.6471 7.05882C17.6471 6.82481 17.5541 6.60038 17.3886 6.43491C17.2232 6.26943 16.9987 6.17647 16.7647 6.17647ZM9.97059 7.69412C10.4414 7.28659 10.819 6.78255 11.0778 6.2162C11.3366 5.64985 11.4706 5.03445 11.4706 4.41176C11.4706 3.24169 11.0058 2.11954 10.1784 1.29218C9.35105 0.46481 8.2289 0 7.05882 0C5.88875 0 4.7666 0.46481 3.93923 1.29218C3.11187 2.11954 2.64706 3.24169 2.64706 4.41176C2.64705 5.03445 2.781 5.64985 3.03982 6.2162C3.29863 6.78255 3.67626 7.28659 4.14706 7.69412C2.91189 8.25343 1.86394 9.15664 1.12851 10.2958C0.393084 11.4349 0.0012987 12.7617 0 14.1176C0 14.3517 0.0929619 14.5761 0.258435 14.7416C0.423908 14.907 0.648338 15 0.882353 15C1.11637 15 1.3408 14.907 1.50627 14.7416C1.67174 14.5761 1.76471 14.3517 1.76471 14.1176C1.76471 12.7136 2.32248 11.367 3.31532 10.3741C4.30816 9.3813 5.65474 8.82353 7.05882 8.82353C8.46291 8.82353 9.80949 9.3813 10.8023 10.3741C11.7952 11.367 12.3529 12.7136 12.3529 14.1176C12.3529 14.3517 12.4459 14.5761 12.6114 14.7416C12.7768 14.907 13.0013 15 13.2353 15C13.4693 15 13.6937 14.907 13.8592 14.7416C14.0247 14.5761 14.1176 14.3517 14.1176 14.1176C14.1163 12.7617 13.7246 11.4349 12.9891 10.2958C12.2537 9.15664 11.2058 8.25343 9.97059 7.69412ZM7.05882 7.05882C6.53528 7.05882 6.0235 6.90358 5.5882 6.61271C5.15289 6.32185 4.81361 5.90844 4.61326 5.42475C4.41291 4.94106 4.36049 4.40883 4.46263 3.89535C4.56476 3.38187 4.81687 2.91021 5.18707 2.54001C5.55727 2.16981 6.02893 1.91771 6.54241 1.81557C7.05589 1.71343 7.58812 1.76585 8.07181 1.9662C8.5555 2.16655 8.96891 2.50583 9.25977 2.94114C9.55064 3.37644 9.70588 3.88823 9.70588 4.41176C9.70588 5.11381 9.427 5.7871 8.93058 6.28352C8.43416 6.77994 7.76087 7.05882 7.05882 7.05882Z" fill="white"/>
</svg>
