<svg width="25" height="24" viewBox="0 0 25 24" fill="none" xmlns="http://www.w3.org/2000/svg">
<path d="M12.0333 0C10.4575 0 8.89713 0.310375 7.44129 0.913405C5.98545 1.51643 4.66264 2.40031 3.54839 3.51456C1.29805 5.7649 0.0338222 8.81701 0.0338222 11.9995C0.023332 14.7703 0.982731 17.4575 2.7457 19.5951L0.345808 21.995C0.179307 22.1638 0.066516 22.378 0.0216691 22.6108C-0.0231779 22.8436 0.00192819 23.0844 0.0938194 23.303C0.193484 23.5189 0.355053 23.7003 0.558015 23.8242C0.760977 23.9481 0.996181 24.0089 1.23377 23.9989H12.0333C15.2157 23.9989 18.2679 22.7347 20.5182 20.4844C22.7685 18.234 24.0328 15.1819 24.0328 11.9995C24.0328 8.81701 22.7685 5.7649 20.5182 3.51456C18.2679 1.26423 15.2157 0 12.0333 0ZM12.0333 21.599H4.12564L5.24159 20.4831C5.46508 20.2583 5.59053 19.9541 5.59053 19.6371C5.59053 19.3201 5.46508 19.016 5.24159 18.7912C3.67036 17.2217 2.69191 15.156 2.47294 12.946C2.25397 10.736 2.80803 8.51843 4.04072 6.67113C5.2734 4.82383 7.10846 3.46108 9.23323 2.81504C11.358 2.16901 13.6411 2.27966 15.6934 3.12816C17.7457 3.97665 19.4404 5.51049 20.4886 7.46834C21.5369 9.42619 21.8739 11.6869 21.4422 13.8654C21.0106 16.0439 19.8369 18.0053 18.1213 19.4154C16.4056 20.8256 14.2541 21.5973 12.0333 21.599ZM15.6331 10.7995H13.2332V8.39963C13.2332 8.08138 13.1068 7.77617 12.8818 7.55114C12.6567 7.3261 12.3515 7.19968 12.0333 7.19968C11.715 7.19968 11.4098 7.3261 11.1848 7.55114C10.9598 7.77617 10.8333 8.08138 10.8333 8.39963V10.7995H8.43345C8.1152 10.7995 7.80999 10.9259 7.58496 11.151C7.35993 11.376 7.2335 11.6812 7.2335 11.9995C7.2335 12.3177 7.35993 12.6229 7.58496 12.848C7.80999 13.073 8.1152 13.1994 8.43345 13.1994H10.8333V15.5993C10.8333 15.9176 10.9598 16.2228 11.1848 16.4478C11.4098 16.6728 11.715 16.7993 12.0333 16.7993C12.3515 16.7993 12.6567 16.6728 12.8818 16.4478C13.1068 16.2228 13.2332 15.9176 13.2332 15.5993V13.1994H15.6331C15.9514 13.1994 16.2566 13.073 16.4816 12.848C16.7067 12.6229 16.8331 12.3177 16.8331 11.9995C16.8331 11.6812 16.7067 11.376 16.4816 11.151C16.2566 10.9259 15.9514 10.7995 15.6331 10.7995Z" fill="white"/>
</svg>
