<svg width="23" height="23" viewBox="0 0 23 23" fill="none" xmlns="http://www.w3.org/2000/svg">
<path d="M19.319 0H3.40924C2.50505 0 1.6379 0.359187 0.998543 0.998543C0.359187 1.6379 0 2.50505 0 3.40924V19.319C0 20.2232 0.359187 21.0903 0.998543 21.7297C1.6379 22.3691 2.50505 22.7282 3.40924 22.7282H19.319C19.5059 22.7256 19.6923 22.7066 19.8759 22.6714L20.2168 22.5919H20.2963H20.3531L20.7736 22.4328L20.9214 22.3532C21.035 22.285 21.16 22.2282 21.2736 22.1487C21.4254 22.037 21.5696 21.9156 21.7055 21.785L21.785 21.6827C21.8966 21.5697 21.9992 21.4481 22.0919 21.3191L22.1941 21.1714C22.2735 21.0448 22.3419 20.9118 22.3987 20.7736C22.4299 20.7191 22.4565 20.6621 22.4782 20.6032C22.5351 20.4668 22.5691 20.3191 22.6146 20.1713V20.0009C22.679 19.7788 22.7172 19.55 22.7282 19.319V3.40924C22.7282 2.50505 22.3691 1.6379 21.7297 0.998543C21.0903 0.359187 20.2232 0 19.319 0ZM3.40924 20.4554C3.10784 20.4554 2.81879 20.3357 2.60567 20.1226C2.39255 19.9095 2.27282 19.6204 2.27282 19.319V14.4211L6.01162 10.6709C6.11727 10.5644 6.24295 10.4799 6.38144 10.4222C6.51992 10.3645 6.66845 10.3348 6.81847 10.3348C6.96849 10.3348 7.11703 10.3645 7.25551 10.4222C7.39399 10.4799 7.51968 10.5644 7.62533 10.6709L17.3985 20.4554H3.40924ZM20.4554 19.319C20.4544 19.4591 20.4274 19.5978 20.3759 19.7281C20.3499 19.7835 20.3195 19.8367 20.285 19.8872C20.2546 19.9353 20.2204 19.9809 20.1827 20.0236L14.1029 13.9438L15.1029 12.9437C15.2086 12.8372 15.3343 12.7527 15.4727 12.695C15.6112 12.6373 15.7598 12.6076 15.9098 12.6076C16.0598 12.6076 16.2083 12.6373 16.3468 12.695C16.4853 12.7527 16.611 12.8372 16.7166 12.9437L20.4554 16.6939V19.319ZM20.4554 13.4779L18.319 11.3641C17.6686 10.747 16.8063 10.403 15.9098 10.403C15.0133 10.403 14.1509 10.747 13.5006 11.3641L12.5005 12.3642L9.22767 9.0913C8.57732 8.47422 7.71499 8.13021 6.81847 8.13021C5.92196 8.13021 5.05962 8.47422 4.40928 9.0913L2.27282 11.205V3.40924C2.27282 3.10784 2.39255 2.81879 2.60567 2.60567C2.81879 2.39255 3.10784 2.27282 3.40924 2.27282H19.319C19.6204 2.27282 19.9095 2.39255 20.1226 2.60567C20.3357 2.81879 20.4554 3.10784 20.4554 3.40924V13.4779ZM13.0687 4.54565C12.7316 4.54565 12.402 4.64562 12.1217 4.83293C11.8414 5.02024 11.6229 5.28646 11.4939 5.59794C11.3649 5.90942 11.3311 6.25216 11.3969 6.58282C11.4627 6.91349 11.625 7.21722 11.8634 7.45562C12.1018 7.69401 12.4055 7.85636 12.7362 7.92213C13.0669 7.98791 13.4096 7.95415 13.7211 7.82513C14.0325 7.69611 14.2988 7.47763 14.4861 7.1973C14.6734 6.91698 14.7734 6.58741 14.7734 6.25027C14.7734 5.79818 14.5938 5.3646 14.2741 5.04492C13.9544 4.72524 13.5208 4.54565 13.0687 4.54565Z" fill="#767676"/>
</svg>
