<svg width="13" height="13" viewBox="0 0 13 13" fill="none" xmlns="http://www.w3.org/2000/svg">
<path d="M11.3887 7.14987C11.2452 7.14987 11.0951 7.10421 10.9516 7.07159C10.661 7.00755 10.3754 6.92252 10.0971 6.81718C9.79443 6.70708 9.46177 6.7128 9.16311 6.83323C8.86444 6.95366 8.62086 7.1803 8.47925 7.46952L8.33573 7.76308C7.70035 7.40962 7.1165 6.97063 6.6005 6.45839C6.08827 5.9424 5.64927 5.35854 5.29582 4.72316L5.5698 4.54051C5.85903 4.39889 6.08566 4.15532 6.20609 3.85665C6.32653 3.55798 6.33224 3.22533 6.22215 2.9227C6.11857 2.64377 6.03358 2.35829 5.96773 2.06813C5.93512 1.92462 5.90902 1.77458 5.88945 1.62454C5.81023 1.16504 5.56956 0.748927 5.21077 0.451131C4.85198 0.153336 4.39865 -0.00657159 3.93243 0.00020699H1.9754C1.69426 -0.00243274 1.41585 0.0555343 1.15913 0.170162C0.902408 0.28479 0.673398 0.453386 0.487689 0.664475C0.301981 0.875564 0.163935 1.12419 0.0829487 1.39342C0.0019627 1.66266 -0.0200618 1.94618 0.0183746 2.22469C0.365902 4.9576 1.61402 7.49684 3.56558 9.44131C5.51714 11.3858 8.06091 12.6247 10.7951 12.9622H11.043C11.524 12.9629 11.9885 12.7865 12.3476 12.4665C12.554 12.2819 12.7189 12.0556 12.8313 11.8026C12.9438 11.5496 13.0013 11.2756 13 10.9987V9.04167C12.992 8.58854 12.827 8.15223 12.5331 7.80722C12.2393 7.4622 11.8348 7.22987 11.3887 7.14987ZM11.7149 11.0639C11.7147 11.1565 11.6949 11.2481 11.6567 11.3324C11.6184 11.4168 11.5627 11.4921 11.4931 11.5532C11.4204 11.6165 11.3352 11.6637 11.243 11.6918C11.1508 11.7199 11.0538 11.7282 10.9581 11.7163C8.51506 11.403 6.24578 10.2853 4.50826 8.53955C2.77073 6.79376 1.66385 4.5192 1.3622 2.07465C1.35182 1.9791 1.36092 1.88243 1.38895 1.79049C1.41698 1.69855 1.46336 1.61324 1.52528 1.53973C1.58642 1.47015 1.66166 1.41438 1.74602 1.37614C1.83038 1.33789 1.92192 1.31805 2.01454 1.31794H3.97157C4.12327 1.31456 4.2714 1.36418 4.39046 1.45824C4.50953 1.5523 4.59208 1.68493 4.62391 1.83329C4.65 2.01159 4.68262 2.18773 4.72176 2.36168C4.79712 2.70556 4.89741 3.0435 5.02184 3.37281L4.10856 3.79684C4.03047 3.83266 3.96023 3.88356 3.90187 3.94661C3.84351 4.00966 3.79817 4.08362 3.76847 4.16423C3.73877 4.24485 3.72529 4.33054 3.7288 4.41638C3.7323 4.50222 3.75273 4.58653 3.78891 4.66445C4.72776 6.67546 6.34429 8.292 8.3553 9.23085C8.51412 9.29609 8.69226 9.29609 8.85108 9.23085C8.93244 9.20175 9.0072 9.15677 9.07103 9.09854C9.13487 9.04031 9.18649 8.96998 9.22292 8.89163L9.62737 7.97835C9.96461 8.09895 10.3088 8.19916 10.6581 8.27843C10.832 8.31757 11.0082 8.35018 11.1865 8.37628C11.3348 8.4081 11.4675 8.49066 11.5615 8.60972C11.6556 8.72879 11.7052 8.87692 11.7018 9.02862L11.7149 11.0639Z" fill="#14A23C"/>
</svg>
