<svg width="13" height="14" viewBox="0 0 13 14" fill="none" xmlns="http://www.w3.org/2000/svg">
<path d="M6.5 0C5.23691 0.00239983 4.00178 0.372059 2.94505 1.06395C1.88831 1.75584 1.05559 2.74011 0.548307 3.89685C0.041023 5.0536 -0.118928 6.3329 0.087938 7.57894C0.294804 8.82497 0.859557 9.98396 1.71341 10.9147C2.32324 11.5758 3.06338 12.1033 3.8872 12.4642C4.71101 12.825 5.60063 13.0113 6.5 13.0113C7.39937 13.0113 8.28899 12.825 9.1128 12.4642C9.93661 12.1033 10.6768 11.5758 11.2866 10.9147C12.1404 9.98396 12.7052 8.82497 12.9121 7.57894C13.1189 6.3329 12.959 5.0536 12.4517 3.89685C11.9444 2.74011 11.1117 1.75584 10.055 1.06395C8.99822 0.372059 7.76309 0.00239983 6.5 0ZM6.5 11.7223C5.15094 11.7202 3.85527 11.1949 2.88563 10.257C3.18002 9.54032 3.68082 8.92735 4.32438 8.49596C4.96795 8.06458 5.72523 7.83425 6.5 7.83425C7.27477 7.83425 8.03205 8.06458 8.67562 8.49596C9.31918 8.92735 9.81998 9.54032 10.1144 10.257C9.14473 11.1949 7.84906 11.7202 6.5 11.7223ZM5.19753 5.2099C5.19753 4.95229 5.27391 4.70047 5.41703 4.48628C5.56015 4.27209 5.76357 4.10515 6.00156 4.00657C6.23956 3.90799 6.50144 3.88219 6.7541 3.93245C7.00675 3.9827 7.23883 4.10675 7.42099 4.28891C7.60314 4.47106 7.72719 4.70314 7.77745 4.9558C7.8277 5.20845 7.80191 5.47033 7.70333 5.70833C7.60475 5.94633 7.43781 6.14975 7.22362 6.29286C7.00942 6.43598 6.7576 6.51237 6.5 6.51237C6.15456 6.51237 5.82327 6.37514 5.57901 6.13088C5.33475 5.88662 5.19753 5.55533 5.19753 5.2099ZM11 9.11732C10.4182 8.12207 9.52265 7.34792 8.45371 6.91614C8.7853 6.54015 9.00135 6.07647 9.07595 5.58073C9.15054 5.085 9.08051 4.57827 8.87425 4.12135C8.66799 3.66443 8.33426 3.27674 7.91312 3.00478C7.49198 2.73283 7.00132 2.58818 6.5 2.58818C5.99868 2.58818 5.50802 2.73283 5.08688 3.00478C4.66574 3.27674 4.33201 3.66443 4.12575 4.12135C3.91949 4.57827 3.84946 5.085 3.92405 5.58073C3.99865 6.07647 4.2147 6.54015 4.54629 6.91614C3.47735 7.34792 2.58181 8.12207 1.99995 9.11732C1.53624 8.32743 1.29122 7.42831 1.2901 6.51237C1.2901 5.13062 1.839 3.80546 2.81605 2.82842C3.79309 1.85137 5.11825 1.30247 6.5 1.30247C7.88175 1.30247 9.20691 1.85137 10.184 2.82842C11.161 3.80546 11.7099 5.13062 11.7099 6.51237C11.7088 7.42831 11.4638 8.32743 11 9.11732Z" fill="#14A23C"/>
</svg>
