<svg width="18" height="18" viewBox="0 0 18 18" fill="none" xmlns="http://www.w3.org/2000/svg">
<path d="M8.92441 0C7.75573 0 6.5985 0.230188 5.51878 0.67742C4.43907 1.12465 3.45801 1.78017 2.63163 2.60655C0.962688 4.2755 0.025084 6.53907 0.025084 8.89932C0.017304 10.9543 0.728836 12.9472 2.03633 14.5326L0.256466 16.3125C0.132981 16.4376 0.0493311 16.5965 0.0160707 16.7692C-0.0171897 16.9418 0.00143003 17.1204 0.0695805 17.2825C0.143496 17.4426 0.263322 17.5772 0.413848 17.6691C0.564373 17.761 0.73881 17.8061 0.915016 17.7986H8.92441C11.2847 17.7986 13.5482 16.861 15.2172 15.1921C16.8861 13.5231 17.8237 11.2596 17.8237 8.89932C17.8237 6.53907 16.8861 4.2755 15.2172 2.60655C13.5482 0.937604 11.2847 0 8.92441 0ZM8.92441 16.0188H3.05975L3.88739 15.1911C4.05314 15.0244 4.14617 14.7988 4.14617 14.5637C4.14617 14.3286 4.05314 14.1031 3.88739 13.9363C2.7221 12.7723 1.99644 11.2403 1.83404 9.60129C1.67164 7.96227 2.08256 6.31763 2.99677 4.9476C3.91098 3.57756 5.27194 2.56688 6.84776 2.08776C8.42359 1.60863 10.1168 1.6907 11.6389 2.31998C13.161 2.94925 14.4178 4.08681 15.1953 5.53884C15.9727 6.99087 16.2226 8.66753 15.9025 10.2832C15.5823 11.8988 14.7119 13.3535 13.4395 14.3993C12.1671 15.4452 10.5715 16.0175 8.92441 16.0188Z" fill="white"/>
</svg>
