<svg width="15" height="15" viewBox="0 0 15 15" fill="none" xmlns="http://www.w3.org/2000/svg">
<path d="M14.1934 8.96424C13.9953 8.96424 13.8053 9.04294 13.6652 9.18304C13.5251 9.32313 13.4464 9.51314 13.4464 9.71126V12.6993C13.4464 12.8975 13.3677 13.0875 13.2276 13.2276C13.0875 13.3677 12.8975 13.4464 12.6993 13.4464H2.24106C2.04294 13.4464 1.85293 13.3677 1.71284 13.2276C1.57274 13.0875 1.49404 12.8975 1.49404 12.6993V9.71126C1.49404 9.51314 1.41534 9.32313 1.27524 9.18304C1.13515 9.04294 0.945142 8.96424 0.74702 8.96424C0.548898 8.96424 0.358891 9.04294 0.218797 9.18304C0.0787036 9.32313 0 9.51314 0 9.71126V12.6993C0 13.2937 0.236111 13.8637 0.656391 14.284C1.07667 14.7043 1.64669 14.9404 2.24106 14.9404H12.6993C13.2937 14.9404 13.8637 14.7043 14.284 14.284C14.7043 13.8637 14.9404 13.2937 14.9404 12.6993V9.71126C14.9404 9.51314 14.8617 9.32313 14.7216 9.18304C14.5815 9.04294 14.3915 8.96424 14.1934 8.96424ZM6.93982 10.2416C7.01086 10.3097 7.09464 10.363 7.18633 10.3985C7.27575 10.438 7.37244 10.4585 7.4702 10.4585C7.56796 10.4585 7.66465 10.438 7.75407 10.3985C7.84577 10.363 7.92954 10.3097 8.00059 10.2416L10.9887 7.25357C11.1293 7.1129 11.2084 6.92211 11.2084 6.72318C11.2084 6.52425 11.1293 6.33346 10.9887 6.1928C10.848 6.05213 10.6572 5.9731 10.4583 5.9731C10.2593 5.9731 10.0686 6.05213 9.9279 6.1928L8.21722 7.91094V0.74702C8.21722 0.548898 8.13852 0.358891 7.99842 0.218797C7.85833 0.0787036 7.66832 0 7.4702 0C7.27208 0 7.08207 0.0787036 6.94198 0.218797C6.80189 0.358891 6.72318 0.548898 6.72318 0.74702V7.91094L5.01251 6.1928C4.94285 6.12315 4.86017 6.0679 4.76916 6.0302C4.67816 5.99251 4.58062 5.9731 4.48212 5.9731C4.38362 5.9731 4.28608 5.99251 4.19508 6.0302C4.10408 6.0679 4.02139 6.12315 3.95174 6.1928C3.88209 6.26245 3.82684 6.34514 3.78914 6.43614C3.75145 6.52714 3.73204 6.62468 3.73204 6.72318C3.73204 6.82168 3.75145 6.91922 3.78914 7.01022C3.82684 7.10123 3.88209 7.18391 3.95174 7.25357L6.93982 10.2416Z" fill="white"/>
</svg>
